REM DIRINDEX 1\2\6,1\2\7,1\2\8,1\2\9,1\3\10,1\3\11,1\4\12,1\4\13,1\4\14,1\5\15,1\5\16,1\5\17
REM DIRNAME cjc029,folder01,folder02,folder03,folder04,folder05,folder06,folder07,folder08,folder09,folder10,folder11,folder12,folder13,folder14,folder15,folder16
TITLE ""
FILE "1400_2_sec07_0684_0700.mp3" MP3
  TRACK 01 AUDIO
    TITLE "0:"
    INDEX 01 00:00:00
  TRACK 02 AUDIO
    TITLE "13:cjc029_2962"
    INDEX 01 00:00:19
  TRACK 03 AUDIO
    TITLE "0:"
    INDEX 01 00:01:28
  TRACK 04 AUDIO
    TITLE "14:cjc029_2963"
    INDEX 01 00:01:32
  TRACK 05 AUDIO
    TITLE "0:"
    INDEX 01 00:02:36
  TRACK 06 AUDIO
    TITLE "13:cjc029_2964"
    INDEX 01 00:03:17
  TRACK 07 AUDIO
    TITLE "0:"
    INDEX 01 00:04:36
  TRACK 08 AUDIO
    TITLE "14:cjc029_2965"
    INDEX 01 00:04:44
  TRACK 09 AUDIO
    TITLE "0:"
    INDEX 01 00:07:17
  TRACK 10 AUDIO
    TITLE "13:cjc029_2966"
    INDEX 01 00:07:74
  TRACK 11 AUDIO
    TITLE "0:"
    INDEX 01 00:09:10
  TRACK 12 AUDIO
    TITLE "14:cjc029_2967"
    INDEX 01 00:09:14
  TRACK 13 AUDIO
    TITLE "0:"
    INDEX 01 00:10:53
  TRACK 14 AUDIO
    TITLE "13:cjc029_2968"
    INDEX 01 00:11:35
  TRACK 15 AUDIO
    TITLE "0:"
    INDEX 01 00:12:44
  TRACK 16 AUDIO
    TITLE "14:cjc029_2969"
    INDEX 01 00:12:52
  TRACK 17 AUDIO
    TITLE "0:"
    INDEX 01 00:15:09
  TRACK 18 AUDIO
    TITLE "13:cjc029_2970"
    INDEX 01 00:15:64
  TRACK 19 AUDIO
    TITLE "0:"
    INDEX 01 00:17:12
  TRACK 20 AUDIO
    TITLE "14:cjc029_2971"
    INDEX 01 00:17:18
  TRACK 21 AUDIO
    TITLE "0:"
    INDEX 01 00:20:32
  TRACK 22 AUDIO
    TITLE "13:cjc029_2972"
    INDEX 01 00:21:13
  TRACK 23 AUDIO
    TITLE "0:"
    INDEX 01 00:22:46
  TRACK 24 AUDIO
    TITLE "14:cjc029_2973"
    INDEX 01 00:22:50
  TRACK 25 AUDIO
    TITLE "0:"
    INDEX 01 00:25:27
  TRACK 26 AUDIO
    TITLE "13:cjc029_2974"
    INDEX 01 00:26:09
  TRACK 27 AUDIO
    TITLE "0:"
    INDEX 01 00:27:32
  TRACK 28 AUDIO
    TITLE "14:cjc029_2975"
    INDEX 01 00:27:38
  TRACK 29 AUDIO
    TITLE "0:"
    INDEX 01 00:30:14
  TRACK 30 AUDIO
    TITLE "13:cjc029_2976"
    INDEX 01 00:30:69
  TRACK 31 AUDIO
    TITLE "0:"
    INDEX 01 00:32:00
  TRACK 32 AUDIO
    TITLE "14:cjc029_2977"
    INDEX 01 00:32:03
  TRACK 33 AUDIO
    TITLE "0:"
    INDEX 01 00:33:15
  TRACK 34 AUDIO
    TITLE "13:cjc029_2978"
    INDEX 01 00:34:00
  TRACK 35 AUDIO
    TITLE "0:"
    INDEX 01 00:35:08
  TRACK 36 AUDIO
    TITLE "14:cjc029_2979"
    INDEX 01 00:35:14
  TRACK 37 AUDIO
    TITLE "0:"
    INDEX 01 00:39:00
  TRACK 38 AUDIO
    TITLE "13:cjc029_2980"
    INDEX 01 00:39:54
  TRACK 39 AUDIO
    TITLE "0:"
    INDEX 01 00:40:56
  TRACK 40 AUDIO
    TITLE "14:cjc029_2981"
    INDEX 01 00:40:62
  TRACK 41 AUDIO
    TITLE "0:"
    INDEX 01 00:42:00
  TRACK 42 AUDIO
    TITLE "13:cjc029_2982"
    INDEX 01 00:42:57
  TRACK 43 AUDIO
    TITLE "0:"
    INDEX 01 00:43:68
  TRACK 44 AUDIO
    TITLE "14:cjc029_2983"
    INDEX 01 00:44:01
  TRACK 45 AUDIO
    TITLE "0:"
    INDEX 01 00:47:09
  TRACK 46 AUDIO
    TITLE "13:cjc029_2984"
    INDEX 01 00:47:64
  TRACK 47 AUDIO
    TITLE "0:"
    INDEX 01 00:49:06
  TRACK 48 AUDIO
    TITLE "14:cjc029_2985"
    INDEX 01 00:49:08
  TRACK 49 AUDIO
    TITLE "0:"
    INDEX 01 00:51:60
  TRACK 50 AUDIO
    TITLE "13:cjc029_2986"
    INDEX 01 00:52:43
  TRACK 51 AUDIO
    TITLE "0:"
    INDEX 01 00:53:70
  TRACK 52 AUDIO
    TITLE "14:cjc029_2987"
    INDEX 01 00:54:01
  TRACK 53 AUDIO
    TITLE "0:"
    INDEX 01 00:55:61
  TRACK 54 AUDIO
    TITLE "13:cjc029_2988"
    INDEX 01 00:56:43
  TRACK 55 AUDIO
    TITLE "0:"
    INDEX 01 00:57:45
  TRACK 56 AUDIO
    TITLE "14:cjc029_2989"
    INDEX 01 00:57:48
  TRACK 57 AUDIO
    TITLE "0:"
    INDEX 01 00:59:06
  TRACK 58 AUDIO
    TITLE "13:cjc029_2990"
    INDEX 01 00:59:65
  TRACK 59 AUDIO
    TITLE "0:"
    INDEX 01 01:00:66
  TRACK 60 AUDIO
    TITLE "14:cjc029_2991"
    INDEX 01 01:00:70
  TRACK 61 AUDIO
    TITLE "0:"
    INDEX 01 01:04:09
  TRACK 62 AUDIO
    TITLE "13:cjc029_2992"
    INDEX 01 01:04:64
  TRACK 63 AUDIO
    TITLE "0:"
    INDEX 01 01:05:73
  TRACK 64 AUDIO
    TITLE "14:cjc029_2993"
    INDEX 01 01:06:04
  TRACK 65 AUDIO
    TITLE "0:"
    INDEX 01 01:08:72
  TRACK 66 AUDIO
    TITLE "13:cjc029_2994"
    INDEX 01 01:09:52
  TRACK 67 AUDIO
    TITLE "0:"
    INDEX 01 01:10:57
  TRACK 68 AUDIO
    TITLE "14:cjc029_2995"
    INDEX 01 01:10:63
  TRACK 69 AUDIO
    TITLE "0:"
    INDEX 01 01:12:11
